HIERARCHY
ROOT Pelvis
{
	OFFSET 0.000000 0.000000 0.000000
	CHANNELS 6 Xposition Yposition Zposition Xrotation Yrotation Zrotation
	JOINT LeftUpLeg_virtual
	{
		OFFSET 0.000000 0.000000 0.000000
		CHANNELS 3 Xrotation Yrotation Zrotation
		JOINT LeftUpLeg
		{
			OFFSET 18.735201 -5.666702 -4.541200
			CHANNELS 3 Xrotation Yrotation Zrotation
			JOINT LeftLeg
			{
				OFFSET -0.021200 -31.938179 0.493100
				CHANNELS 3 Xrotation Yrotation Zrotation
				JOINT LeftFoot
				{
					OFFSET 0.021200 -31.938179 -4.336299
					CHANNELS 3 Xrotation Yrotation Zrotation
					JOINT LeftToeBase
					{
						OFFSET 0.943001 -26.722000 15.023500
						CHANNELS 3 Xrotation Yrotation Zrotation
						End Site
						{
							OFFSET 0 0 0
						}
					}
				}
			}
		}
	}
	JOINT RightUpLeg_virtual
	{
		OFFSET 0.000000 0.000000 0.000000
		CHANNELS 3 Xrotation Yrotation Zrotation
		JOINT RightUpLeg
		{
			OFFSET -18.735201 -5.666702 -4.541200
			CHANNELS 3 Xrotation Yrotation Zrotation
			JOINT RightLeg
			{
				OFFSET 0.018946 -31.938133 0.493100
				CHANNELS 3 Xrotation Yrotation Zrotation
				JOINT RightFoot
				{
					OFFSET -0.018946 -31.938126 -4.336299
					CHANNELS 3 Xrotation Yrotation Zrotation
					JOINT RightToeBase
					{
						OFFSET -0.943001 -26.722004 15.023500
						CHANNELS 3 Xrotation Yrotation Zrotation
						End Site
						{
							OFFSET 0 0 0
						}
					}
				}
			}
		}
	}
	JOINT Hips_virtual
	{
		OFFSET 0.000000 0.000000 0.000000
		CHANNELS 3 Xrotation Yrotation Zrotation
		JOINT Hips
		{
			OFFSET -0.000000 -0.000000 -0.000000
			CHANNELS 3 Xrotation Yrotation Zrotation
			JOINT Spine
			{
				OFFSET 0.000000 10.199997 -0.299500
				CHANNELS 3 Xrotation Yrotation Zrotation
				JOINT Spine1
				{
					OFFSET 0.000000 11.900002 -1.516600
					CHANNELS 3 Xrotation Yrotation Zrotation
					JOINT Spine2
					{
						OFFSET 0.000000 13.600006 -2.842500
						CHANNELS 3 Xrotation Yrotation Zrotation
						JOINT Neck_virtual
						{
							OFFSET 0.000000 0.000000 0.000000
							CHANNELS 3 Xrotation Yrotation Zrotation
							JOINT Neck
							{
								OFFSET 0.000000 9.624100 -2.890100
								CHANNELS 3 Xrotation Yrotation Zrotation
								JOINT Head
								{
									OFFSET 0.000000 14.068802 -1.351900
									CHANNELS 3 Xrotation Yrotation Zrotation
									End Site
									{
										OFFSET 0 0 0
									}
								}
							}
						}
						JOINT LeftShoulder_virtual
						{
							OFFSET 0.000000 0.000000 0.000000
							CHANNELS 3 Xrotation Yrotation Zrotation
							JOINT LeftShoulder
							{
								OFFSET 15.263000 10.923401 -0.547700
								CHANNELS 3 Xrotation Yrotation Zrotation
								JOINT LeftArm
								{
									OFFSET 25.438599 -2.830597 -13.032500
									CHANNELS 3 Xrotation Yrotation Zrotation
									JOINT LeftForeArm
									{
										OFFSET 29.960503 0.000000 0.000000
										CHANNELS 3 Xrotation Yrotation Zrotation
										JOINT LeftHand
										{
											OFFSET 27.849251 0.000000 0.000000
											CHANNELS 3 Xrotation Yrotation Zrotation
											End Site
											{
												OFFSET 0 0 0
											}
										}
									}
								}
							}
						}
						JOINT RightShoulder_virtual
						{
							OFFSET 0.000000 0.000000 0.000000
							CHANNELS 3 Xrotation Yrotation Zrotation
							JOINT RightShoulder
							{
								OFFSET -15.263000 10.923401 -0.547700
								CHANNELS 3 Xrotation Yrotation Zrotation
								JOINT RightArm
								{
									OFFSET -25.438599 -2.830597 -13.032500
									CHANNELS 3 Xrotation Yrotation Zrotation
									JOINT RightForeArm
									{
										OFFSET -29.960503 0.000000 0.000000
										CHANNELS 3 Xrotation Yrotation Zrotation
										JOINT RightHand
										{
											OFFSET -27.849251 0.000000 0.000000
											CHANNELS 3 Xrotation Yrotation Zrotation
											End Site
											{
												OFFSET 0 0 0
											}
										}
									}
								}
							}
						}
					}
				}
			}
		}
	}
}
MOTION
Frames: 6
Frame Time: 0.03333333
-2.464030 91.481003 -49.783333 0.000000 0.000000 0.000000 176.819254 -62.075327 178.947295 -27.518397 11.787561 21.317784 35.159007 -3.657096 -2.493092 -4.915332 0.926199 -3.082822 0.000000 0.000000 0.000000 176.953864 -63.189673 179.122572 -7.981832 -16.017217 10.086736 18.998721 8.472106 2.121017 -12.037254 4.175923 -13.018373 0.000000 0.000000 0.000000 174.386409 -64.323313 176.280967 -0.513860 0.080869 -1.067461 4.505037 1.303833 3.126139 -4.776381 0.528798 -2.354951 0.000000 0.000000 0.000000 -6.040121 2.104675 -3.024402 0.871910 4.404193 1.603480 0.000000 0.000000 0.000000 -5.547834 2.170545 -3.070201 1.629186 -0.094704 0.192371 7.129678 -4.044103 -66.921183 8.744369 -22.986107 -8.550314 0.000000 0.000000 0.000000 -5.474148 2.025756 -2.939364 3.340618 -3.968878 10.946616 13.199723 26.066850 58.569808 11.416718 32.125959 -0.662565 0.000000 0.000000 0.000000 
-2.857386 91.745361 -51.761665 0.000000 0.000000 0.000000 177.032452 -56.718475 179.593390 -27.537509 6.550504 16.816281 35.411901 -5.156074 -2.422918 -4.002703 1.305955 -4.745520 0.000000 0.000000 0.000000 177.428972 -57.605044 179.927468 -7.400549 -13.644074 10.786365 17.785546 12.049080 2.630180 -9.966464 3.447050 -17.232859 0.000000 0.000000 0.000000 175.314441 -59.208062 177.749007 -0.505097 -0.275622 -1.067565 4.864018 1.739631 2.955150 -4.544375 1.027329 -2.527196 0.000000 0.000000 0.000000 -5.809210 2.501402 -3.152847 0.914066 4.019380 1.567444 0.000000 0.000000 0.000000 -5.361869 2.534271 -3.246520 1.584359 0.190519 0.246802 8.272212 -4.933937 -67.148211 9.738325 -21.472814 -8.604304 0.000000 0.000000 0.000000 -5.293612 2.434543 -3.052272 3.302466 -3.755396 11.333359 11.506547 27.536387 59.107781 11.806608 32.463934 -1.410117 0.000000 0.000000 0.000000 
-3.341749 92.042992 -53.657578 0.000000 0.000000 0.000000 176.894468 -51.829699 179.694914 -28.072144 1.857299 12.593752 33.692773 -6.721291 -2.410508 -2.727316 1.582030 -7.734212 0.000000 0.000000 0.000000 177.613933 -52.663313 -179.610575 -6.663322 -10.903140 11.274323 16.621793 15.960989 3.060750 -6.978465 2.470377 -20.542089 0.000000 0.000000 0.000000 175.918407 -54.380907 178.861494 -0.675387 -0.261677 -1.106012 5.220613 2.161076 2.557157 -4.227287 1.515833 -2.441406 0.000000 0.000000 0.000000 -5.486895 2.887405 -3.064755 0.906058 3.540525 1.493517 0.000000 0.000000 0.000000 -5.050952 2.902290 -3.170561 1.560352 0.317195 0.267540 9.000211 -5.772894 -67.731243 10.594072 -19.557926 -8.664308 0.000000 0.000000 0.000000 -5.017751 2.832892 -2.916269 3.248267 -3.449313 11.866060 9.628397 29.370917 59.306416 12.112537 32.201678 -2.095280 0.000000 0.000000 0.000000 
-3.879058 92.274872 -55.628105 0.000000 0.000000 0.000000 176.779216 -47.479582 179.653687 -29.297362 -1.921413 9.125752 30.491296 -8.182525 -2.516174 -0.535398 1.656488 -11.539594 0.000000 0.000000 0.000000 177.677017 -48.352945 -179.399317 -6.158453 -8.275899 11.391173 16.525784 20.053794 3.565562 -4.318066 1.390446 -22.718714 0.000000 0.000000 0.000000 176.381207 -49.854189 179.707618 -0.803918 0.240979 -0.992827 5.626745 2.539607 1.964185 -3.852232 1.953093 -2.147606 0.000000 0.000000 0.000000 -5.081936 3.218012 -2.795237 0.877792 2.988024 1.386978 0.000000 0.000000 0.000000 -4.667249 3.226607 -2.876964 1.546274 0.366187 0.226124 9.168277 -5.997255 -68.860710 11.266123 -17.847686 -8.690462 0.000000 0.000000 0.000000 -4.666790 3.175184 -2.590296 3.188451 -3.149594 12.398975 7.863112 31.554514 59.097447 12.292927 31.524629 -2.703732 0.000000 0.000000 0.000000 
-4.470799 92.308113 -57.556709 0.000000 0.000000 0.000000 176.937239 -43.571730 179.825261 -31.076142 -4.635991 6.484281 26.854897 -9.366186 -2.587364 2.743136 1.643738 -15.270532 0.000000 0.000000 0.000000 177.936864 -44.414275 -179.035132 -6.111597 -6.380513 11.165667 18.141136 23.971483 4.198899 -3.414643 0.515590 -23.953777 0.000000 0.000000 0.000000 176.857271 -45.600501 -179.579484 -0.796096 0.709577 -0.885685 6.071161 2.826281 1.272653 -3.422575 2.277103 -1.751248 0.000000 0.000000 0.000000 -4.643331 3.447065 -2.427320 0.845662 2.392559 1.262182 0.000000 0.000000 0.000000 -4.232669 3.465214 -2.467858 1.536779 0.444786 0.080083 8.891686 -5.311638 -70.362471 11.740403 -16.845514 -8.617943 0.000000 0.000000 0.000000 -4.256583 3.393436 -2.195091 3.151045 -2.933051 12.775497 6.467149 34.025585 58.651640 12.353989 30.732122 -3.232013 0.000000 0.000000 0.000000 
-5.066581 92.125626 -59.493011 0.000000 0.000000 0.000000 177.414300 -39.653630 -179.608335 -32.869596 -6.306960 4.508320 23.549154 -10.173338 -2.415017 6.119839 1.654866 -18.210544 0.000000 0.000000 0.000000 178.392383 -40.404855 -178.421494 -5.990419 -5.415219 10.769812 20.617266 27.522852 4.983902 -4.214032 -0.101652 -24.227999 0.000000 0.000000 0.000000 177.421595 -41.391862 -178.880756 -0.775654 1.179204 -0.842145 6.516356 3.001194 0.560931 -2.932682 2.455965 -1.365360 0.000000 0.000000 0.000000 -4.209793 3.526669 -2.062663 0.823378 1.782327 1.135562 0.000000 0.000000 0.000000 -3.768840 3.569953 -2.057320 1.527271 0.618238 -0.156816 8.461422 -3.835205 -71.882646 12.074985 -16.596253 -8.462385 0.000000 0.000000 0.000000 -3.787386 3.450138 -1.843326 3.136922 -2.849964 12.935207 5.533909 36.605190 58.290870 12.348093 30.162744 -3.759243 0.000000 0.000000 0.000000 
